<svg width="19" height="18" viewBox="0 0 19 18" fill="none" xmlns="http://www.w3.org/2000/svg">
<path d="M13.4583 0H5.12951C2.3011 0 0 2.22841 0 4.96735V13.0327C0 15.7717 2.3011 18 5.12951 18H13.4583C16.2869 18 18.588 15.7716 18.588 13.0327V4.96735C18.5881 2.22841 16.2869 0 13.4583 0ZM16.9389 13.0327C16.9389 14.8911 15.3775 16.403 13.4584 16.403H5.12951C3.21048 16.4031 1.64922 14.8911 1.64922 13.0327V4.96735C1.64922 3.10903 3.21048 1.59705 5.12951 1.59705H13.4583C15.3774 1.59705 16.9388 3.10903 16.9388 4.96735L16.9389 13.0327Z" fill="#808080"/>
<path d="M9.29356 4.3623C6.65251 4.3623 4.50391 6.44294 4.50391 9.00045C4.50391 11.5579 6.65251 13.6384 9.29356 13.6384C11.9346 13.6384 14.0832 11.5579 14.0832 9.00045C14.0832 6.44294 11.9346 4.3623 9.29356 4.3623ZM9.29356 12.0412C7.56199 12.0412 6.15312 10.6771 6.15312 9.00034C6.15312 7.32344 7.56188 5.95925 9.29356 5.95925C11.0252 5.95925 12.434 7.32344 12.434 9.00034C12.434 10.6771 11.0251 12.0412 9.29356 12.0412Z" fill="#808080"/>
<path d="M14.2836 3.00879C13.9659 3.00879 13.6538 3.13336 13.4294 3.35162C13.2038 3.56882 13.0742 3.87119 13.0742 4.17996C13.0742 4.48776 13.204 4.79003 13.4294 5.00829C13.6536 5.22549 13.9659 5.35112 14.2836 5.35112C14.6025 5.35112 14.9136 5.22549 15.139 5.00829C15.3644 4.79003 15.4931 4.48765 15.4931 4.17996C15.4931 3.87119 15.3644 3.56882 15.139 3.35162C14.9147 3.13336 14.6025 3.00879 14.2836 3.00879Z" fill="#808080"/>
</svg>
