<svg width="21" height="18" viewBox="0 0 21 18" fill="none" xmlns="http://www.w3.org/2000/svg">
<path d="M20.6376 0.492795C20.3854 0.174978 20.0077 0 19.5738 0C19.338 0 19.0882 0.0511299 18.8314 0.152253L1.35337 7.02687C0.425829 7.3916 0.300907 7.93893 0.308941 8.23273C0.316975 8.52652 0.471828 9.06574 1.41796 9.37593C1.42363 9.37771 1.4293 9.3795 1.43497 9.38112L5.06038 10.4501L7.021 16.227C7.28833 17.0146 7.88837 17.5038 8.58717 17.5038C9.02779 17.5038 9.46115 17.3136 9.84049 16.9539L12.0829 14.8264L15.3355 17.5249C15.3358 17.5252 15.3363 17.5254 15.3366 17.5257L15.3674 17.5514C15.3703 17.5536 15.3733 17.5561 15.3761 17.5583C15.7376 17.8473 16.1323 17.9998 16.5177 18H16.5179C17.271 18 17.8708 17.4256 18.0455 16.5367L20.9092 1.96647C21.0242 1.38164 20.9278 0.858333 20.6376 0.492795ZM6.27321 10.2471L13.2677 6.56524L8.91247 11.3336C8.84111 11.4117 8.79055 11.5073 8.76566 11.6114L7.92586 15.1164L6.27321 10.2471ZM9.02085 16.0368C8.99187 16.0642 8.96273 16.0887 8.93358 16.1113L9.71273 12.8597L11.13 14.0357L9.02085 16.0368ZM19.7235 1.71894L16.8597 16.2893C16.8322 16.4288 16.7441 16.7532 16.5177 16.7532C16.4059 16.7532 16.2654 16.6904 16.1215 16.5763L12.436 13.5186C12.4355 13.5181 12.4349 13.5176 12.4342 13.5173L10.2412 11.6977L16.5395 4.80199C16.7411 4.58124 16.7594 4.24313 16.5828 4.00063C16.406 3.75813 16.0858 3.68184 15.8238 3.81981L5.46492 9.27269L1.7902 8.18939L19.2629 1.31688C19.4105 1.25877 19.5135 1.2466 19.5738 1.2466C19.6108 1.2466 19.6767 1.25114 19.7011 1.28214C19.7332 1.32256 19.7742 1.46037 19.7235 1.71894Z" fill="#808080"/>
</svg>
