<svg width="26" height="18" viewBox="0 0 26 18" fill="none" xmlns="http://www.w3.org/2000/svg">
<path d="M12.9489 18C12.9469 18 12.9446 18 12.9423 18C12.1964 17.9949 5.60228 17.9342 3.73402 17.4251C2.42835 17.0715 1.39766 16.0341 1.04573 14.7182C0.556886 12.869 0.588005 9.30862 0.5914 9.02432C0.588193 8.74136 0.556697 5.15154 1.04422 3.28708C1.04479 3.28537 1.04517 3.28347 1.04573 3.28176C1.3937 1.98095 2.44759 0.911421 3.73081 0.556811C3.73402 0.555861 3.73741 0.5551 3.74062 0.55415C5.58775 0.064993 12.1949 0.00513103 12.9423 0H12.9557C13.7035 0.00513103 20.3152 0.0657531 22.1663 0.575624C23.4686 0.928335 24.4985 1.96442 24.8514 3.27853C25.3585 5.14432 25.3116 8.74193 25.3065 9.04561C25.3101 9.34473 25.3397 12.8732 24.8537 14.7317C24.8533 14.7336 24.8527 14.7353 24.8523 14.7371C24.5002 16.0529 23.4697 17.0903 22.1626 17.4443C22.1609 17.4449 22.159 17.4453 22.1573 17.4459C20.3103 17.9348 13.703 17.9947 12.9557 18C12.9535 18 12.9512 18 12.9489 18ZM2.91097 3.78612C2.48172 5.43185 2.52227 8.97587 2.52265 9.01159V9.03725C2.50982 10.0201 2.5549 12.8665 2.91116 14.2146C3.08392 14.8602 3.59219 15.3716 4.23682 15.5462C5.61529 15.9219 10.986 16.0401 12.9489 16.054C14.917 16.0401 20.2956 15.9252 21.6639 15.5645C22.3065 15.3893 22.813 14.8796 22.9869 14.2333C23.3436 12.8654 23.3883 10.0329 23.3752 9.05625C23.3752 9.04599 23.3752 9.03573 23.3754 9.02547C23.3932 8.03081 23.3583 5.15116 22.9886 3.7922C22.9882 3.79087 22.9879 3.78954 22.9877 3.78821C22.8142 3.1398 22.3057 2.62841 21.6611 2.45377C20.296 2.07768 14.9166 1.95986 12.9489 1.94599C10.9822 1.95986 5.60888 2.07464 4.23644 2.43495C3.60407 2.61169 3.0843 3.14132 2.91097 3.78612ZM23.9199 14.4839H23.9205H23.9199ZM10.4875 12.9404V5.05938L17.2469 9L10.4875 12.9404Z" fill="#808080"/>
</svg>
