<svg width="19" height="18" viewBox="0 0 19 18" fill="none" xmlns="http://www.w3.org/2000/svg">
<path d="M18.4262 8.7682C18.4262 13.6108 14.5871 17.5364 9.85041 17.5364C8.3467 17.5364 6.93402 17.1404 5.70496 16.4454L0.957031 18L2.505 13.2956C1.72412 11.9744 1.27439 10.4248 1.27439 8.7682C1.27439 3.9256 5.11392 0 9.85041 0C14.5875 0 18.4262 3.9256 18.4262 8.7682ZM9.85041 1.3964C5.87442 1.3964 2.64029 4.7034 2.64029 8.7682C2.64029 10.3812 3.15058 11.875 4.01375 13.0902L3.11292 15.828L5.88373 14.9206C7.02214 15.6908 8.3859 16.14 9.8506 16.14C13.826 16.14 17.0607 12.8334 17.0607 8.7686C17.0607 4.7038 13.8262 1.3964 9.85041 1.3964ZM14.181 10.7876C14.128 10.6982 13.9881 10.6442 13.7781 10.5368C13.5677 10.4294 12.5339 9.9092 12.3417 9.8378C12.149 9.7662 12.0084 9.7302 11.8685 9.9452C11.7285 10.1604 11.3256 10.6442 11.2027 10.7876C11.08 10.9314 10.9576 10.9494 10.7472 10.8418C10.5371 10.7344 9.85992 10.5072 9.05692 9.7752C8.4321 9.2056 8.01012 8.5024 7.88745 8.287C7.76497 8.072 7.87464 7.9558 7.97965 7.8488C8.07437 7.7524 8.19005 7.5978 8.29506 7.4724C8.40046 7.3468 8.4354 7.2574 8.50508 7.1138C8.57554 6.9704 8.54041 6.845 8.48761 6.7372C8.43521 6.6298 8.01439 5.5722 7.83931 5.1418C7.66423 4.7118 7.48935 4.7834 7.36648 4.7834C7.244 4.7834 7.10366 4.7654 6.96352 4.7654C6.82338 4.7654 6.59551 4.8192 6.40276 5.0342C6.21021 5.2494 5.66731 5.7694 5.66731 6.8268C5.66731 7.8844 6.42023 8.9062 6.52563 9.0494C6.63064 9.1926 7.97945 11.4334 10.1165 12.294C12.2538 13.1542 12.2538 12.8672 12.6393 12.8312C13.0244 12.7954 13.8827 12.3114 14.0585 11.8098C14.2332 11.3074 14.2332 10.8772 14.181 10.7876Z" fill="#808080"/>
</svg>
