<svg width="83" height="37" viewBox="0 0 83 37" fill="none" xmlns="http://www.w3.org/2000/svg">
<path d="M5.835 11.18C8.04 11.18 9.3 9.965 10.02 8.72L8.19 7.835C7.77 8.66 6.87 9.29 5.835 9.29C4.02 9.29 2.7 7.895 2.7 6.005C2.7 4.115 4.02 2.72 5.835 2.72C6.87 2.72 7.77 3.365 8.19 4.175L10.02 3.275C9.315 2.03 8.04 0.83 5.835 0.83C2.835 0.83 0.51 2.93 0.51 6.005C0.51 9.08 2.835 11.18 5.835 11.18ZM17.7979 11V9.125H13.5679V0.994999H11.4379V11H17.7979ZM28.7694 11L24.9144 0.994999H22.2444L18.3744 11H20.8044L21.4344 9.305H25.7244L26.3394 11H28.7694ZM25.1394 7.43H22.0194L23.5794 3.125L25.1394 7.43ZM33.2958 11.18C35.9958 11.18 37.3008 9.8 37.3008 7.97C37.3008 4.235 31.5558 5.3 31.5558 3.71C31.5558 3.11 32.0658 2.705 32.9808 2.705C34.0008 2.705 35.0808 3.05 35.8908 3.8L37.0758 2.24C36.0858 1.325 34.7658 0.844999 33.1758 0.844999C30.8208 0.844999 29.3808 2.225 29.3808 3.89C29.3808 7.655 35.1408 6.44 35.1408 8.21C35.1408 8.78 34.5708 9.32 33.4008 9.32C32.0208 9.32 30.9258 8.705 30.2208 7.97L29.0658 9.59C29.9958 10.535 31.3758 11.18 33.2958 11.18ZM42.4399 11.18C45.1399 11.18 46.4449 9.8 46.4449 7.97C46.4449 4.235 40.6999 5.3 40.6999 3.71C40.6999 3.11 41.2099 2.705 42.1249 2.705C43.1449 2.705 44.2249 3.05 45.0349 3.8L46.2199 2.24C45.2299 1.325 43.9099 0.844999 42.3199 0.844999C39.9649 0.844999 38.5249 2.225 38.5249 3.89C38.5249 7.655 44.2849 6.44 44.2849 8.21C44.2849 8.78 43.7149 9.32 42.5449 9.32C41.1649 9.32 40.0699 8.705 39.3649 7.97L38.2099 9.59C39.1399 10.535 40.5199 11.18 42.4399 11.18ZM55.1091 11V9.125H50.1591V6.86H55.0041V4.985H50.1591V2.87H55.1091V0.994999H48.0291V11H55.1091ZM60.4792 11.18C63.1792 11.18 64.4842 9.8 64.4842 7.97C64.4842 4.235 58.7392 5.3 58.7392 3.71C58.7392 3.11 59.2492 2.705 60.1642 2.705C61.1842 2.705 62.2642 3.05 63.0742 3.8L64.2592 2.24C63.2692 1.325 61.9492 0.844999 60.3592 0.844999C58.0042 0.844999 56.5642 2.225 56.5642 3.89C56.5642 7.655 62.3242 6.44 62.3242 8.21C62.3242 8.78 61.7542 9.32 60.5842 9.32C59.2042 9.32 58.1092 8.705 57.4042 7.97L56.2492 9.59C57.1792 10.535 58.5592 11.18 60.4792 11.18ZM9.945 23V12.995H7.815V19.28L3.18 12.995H0.99V23H3.12V16.475L7.89 23H9.945ZM14.1977 23V12.995H12.0677V23H14.1977ZM24.8989 23L20.6539 17.69L24.6289 12.995H22.0039L18.4639 17.465V12.995H16.3339V23H18.4639V19.925L19.2439 18.995L22.2739 23H24.8989ZM28.1501 23V12.995H26.0201V23H28.1501ZM34.7413 23V14.87H37.6513V12.995H29.6713V14.87H32.5963V23H34.7413ZM47.53 23L43.675 12.995H41.005L37.135 23H39.565L40.195 21.305H44.485L45.1 23H47.53ZM43.9 19.43H40.78L42.34 15.125L43.9 19.43ZM3.12 36V32.445H5.67C7.83 32.445 9.03 30.96 9.03 29.22C9.03 27.465 7.845 25.995 5.67 25.995H0.99V36H3.12ZM5.385 30.57H3.12V27.87H5.385C6.225 27.87 6.855 28.38 6.855 29.22C6.855 30.045 6.225 30.57 5.385 30.57ZM15.0154 36.18C18.0604 36.18 19.5304 34.485 19.5304 31.995V25.995H17.3554V31.935C17.3554 33.33 16.5604 34.29 15.0154 34.29C13.4704 34.29 12.6604 33.33 12.6604 31.935V25.995H10.5004V32.01C10.5004 34.47 11.9704 36.18 15.0154 36.18ZM26.4963 36.195C28.3113 36.195 29.7363 35.445 30.7563 34.305V30.465H25.9863V32.325H28.6263V33.525C28.2213 33.9 27.3813 34.29 26.4963 34.29C24.6813 34.29 23.3613 32.895 23.3613 31.005C23.3613 29.115 24.6813 27.72 26.4963 27.72C27.5613 27.72 28.4163 28.32 28.8663 29.025L30.6363 28.065C29.8863 26.88 28.5813 25.83 26.4963 25.83C23.5713 25.83 21.1713 27.84 21.1713 31.005C21.1713 34.155 23.5713 36.195 26.4963 36.195ZM41.8247 36L37.9697 25.995H35.2997L31.4297 36H33.8597L34.4897 34.305H38.7797L39.3947 36H41.8247ZM38.1947 32.43H35.0747L36.6347 28.125L38.1947 32.43ZM47.2309 36.18C49.4359 36.18 50.6959 34.965 51.4159 33.72L49.5859 32.835C49.1659 33.66 48.2659 34.29 47.2309 34.29C45.4159 34.29 44.0959 32.895 44.0959 31.005C44.0959 29.115 45.4159 27.72 47.2309 27.72C48.2659 27.72 49.1659 28.365 49.5859 29.175L51.4159 28.275C50.7109 27.03 49.4359 25.83 47.2309 25.83C44.2309 25.83 41.9059 27.93 41.9059 31.005C41.9059 34.08 44.2309 36.18 47.2309 36.18ZM61.8338 36V25.995H59.6888V29.925H54.9638V25.995H52.8337V36H54.9638V31.8H59.6888V36H61.8338ZM71.0354 36V34.125H66.0854V31.86H70.9304V29.985H66.0854V27.87H71.0354V25.995H63.9554V36H71.0354ZM78.3256 36L82.1806 25.995H79.7506L76.9906 33.69L74.2156 25.995H71.7855L75.6556 36H78.3256Z" fill="#EDEDED"/>
</svg>
