<svg width="261" height="163" viewBox="0 0 261 163" fill="none" xmlns="http://www.w3.org/2000/svg">
<rect x="9" y="1.01172" width="243" height="136.391" rx="4.5" fill="white" stroke="#EDEDED"/>
<rect x="5" y="9.01172" width="251" height="140.895" rx="4.5" fill="white" stroke="#EDEDED"/>
<rect x="1" y="17.0117" width="259" height="145.4" rx="4.5" fill="white" stroke="#EDEDED"/>
<rect x="16.5" y="37.3125" width="180" height="92" fill="#EDEDED"/>
<rect x="202.102" y="37.3125" width="26.4" height="13.6" fill="#EDEDED"/>
<rect x="230.102" y="37.3125" width="18.4" height="2.4" rx="1.2" fill="#EDEDED"/>
<rect x="230.102" y="37.3125" width="14.4" height="2.4" rx="1.2" fill="#EDEDED"/>
<rect x="230.102" y="40.5137" width="10.4" height="2.4" rx="1.2" fill="#EDEDED"/>
<rect x="202.102" y="54.9102" width="26.4" height="13.6" fill="#EDEDED"/>
<rect x="230.102" y="54.9102" width="18.4" height="2.4" rx="1.2" fill="#EDEDED"/>
<rect x="230.102" y="54.9102" width="14.4" height="2.4" rx="1.2" fill="#EDEDED"/>
<rect x="230.102" y="58.1113" width="10.4" height="2.4" rx="1.2" fill="#EDEDED"/>
<rect x="202.102" y="72.5117" width="26.4" height="13.6" fill="#EDEDED"/>
<rect x="230.102" y="72.5117" width="18.4" height="2.4" rx="1.2" fill="#EDEDED"/>
<rect x="230.102" y="72.5117" width="14.4" height="2.4" rx="1.2" fill="#EDEDED"/>
<rect x="230.102" y="75.7129" width="10.4" height="2.4" rx="1.2" fill="#EDEDED"/>
<rect x="202.102" y="90.1113" width="26.4" height="13.6" fill="#EDEDED"/>
<rect x="230.102" y="90.1113" width="18.4" height="2.4" rx="1.2" fill="#EDEDED"/>
<rect x="230.102" y="90.1113" width="14.4" height="2.4" rx="1.2" fill="#EDEDED"/>
<rect x="230.102" y="93.3125" width="10.4" height="2.4" rx="1.2" fill="#EDEDED"/>
<rect x="16.5" y="137.312" width="83.1172" height="4" rx="2" fill="#EDEDED"/>
<rect x="16.5" y="144.514" width="46.9793" height="4" rx="2" fill="#EDEDED"/>
<circle cx="106.102" cy="83.7109" r="12" fill="#262626"/>
<path d="M104.387 83.7118V80.2832L108.958 83.7118L104.387 87.1403V83.7118Z" fill="#EDEDED"/>
<circle cx="18.1" cy="31.7113" r="1.6" fill="#2E97E6"/>
<circle opacity="0.5" cx="23.7016" cy="31.7113" r="1.6" fill="#2E97E6"/>
<circle cx="29.2953" cy="31.7113" r="1.6" fill="#2E97E6"/>
</svg>
