<svg width="261" height="163" viewBox="0 0 261 163" fill="none" xmlns="http://www.w3.org/2000/svg">
<rect x="1" y="1.01172" width="259" height="161.4" rx="4.5" fill="white" stroke="#EDEDED"/>
<rect x="16.5" y="26.5117" width="228" height="116" rx="2" fill="#EDEDED"/>
<circle cx="18.1" cy="15.7113" r="1.6" fill="#2E97E6"/>
<circle opacity="0.5" cx="23.7016" cy="15.7113" r="1.6" fill="#2E97E6"/>
<circle cx="29.2992" cy="15.7113" r="1.6" fill="#2E97E6"/>
<path d="M166.602 131.309V140.615C166.602 141.663 165.754 142.512 164.706 142.512H95.4901C94.4424 142.512 93.5938 141.663 93.5938 140.615V131.309C93.5938 121.546 101.509 113.635 111.275 113.633C114.726 113.631 117.765 111.855 119.514 109.163C121.272 106.462 121.09 104.113 121.09 102.215L121.126 102.127C112.616 98.6048 106.631 90.2206 106.631 80.438V79.696C103.252 79.696 100.705 77.0258 100.705 73.8791V64.0277C100.629 60.5977 100.786 48.5015 109.523 40.0795C119.682 30.2874 135.782 31.0885 147.445 36.3271C147.824 36.4978 147.812 37.0406 147.428 37.1994L144.387 38.451C143.932 38.6383 144.029 39.3091 144.517 39.3613L145.994 39.5201C153.065 40.2762 159.633 44.1163 163.706 50.5069C163.815 50.6799 163.784 50.943 163.644 51.0924C161.131 53.7496 159.728 57.2768 159.728 60.9438V73.8791C159.728 77.091 157.123 79.696 153.911 79.696H153.565V80.438C153.565 90.2206 147.58 98.6048 139.07 102.127L139.105 102.215C139.105 104.058 138.909 106.439 140.682 109.163C142.431 111.855 145.47 113.631 148.921 113.633C158.687 113.635 166.602 121.546 166.602 131.309Z" fill="#FFDFBA"/>
<path d="M166.602 131.309V140.615C166.602 141.662 165.753 142.511 164.706 142.511H95.4901C94.4428 142.511 93.5938 141.662 93.5938 140.615V131.309C93.5938 121.545 101.51 113.636 111.273 113.633C114.726 113.632 117.765 111.854 119.514 109.162C125.619 114.377 134.574 114.381 140.682 109.162C142.43 111.854 145.47 113.632 148.923 113.633C158.686 113.636 166.602 121.545 166.602 131.309Z" fill="#2E97E6"/>
<path d="M163.705 50.5079C163.815 50.6807 163.784 50.9424 163.643 51.0913C161.131 53.7504 159.728 57.2764 159.728 60.9436V73.8789C159.728 76.8154 157.516 79.6959 153.565 79.6959V65.0539C153.565 58.77 148.471 53.676 142.187 53.676H118.009C111.725 53.676 106.631 58.77 106.631 65.0539V79.6959C103.252 79.6959 100.705 77.0257 100.705 73.8789V64.0275C100.629 60.5976 100.786 48.5014 109.523 40.0794C119.682 30.287 135.783 31.0886 147.444 36.3277C147.823 36.4981 147.813 37.0412 147.428 37.1995L144.387 38.4516C143.932 38.6389 144.028 39.309 144.517 39.3614L145.994 39.5199C153.066 40.2754 159.633 44.1154 163.705 50.5079Z" fill="#262626"/>
<path d="M153.567 80.4396C153.567 93.4047 143.055 103.907 130.1 103.907C117.894 103.907 106.633 94.4176 106.633 79.6976V65.0557C106.633 58.7717 111.727 53.6777 118.011 53.6777H142.189C148.473 53.6777 153.567 58.7717 153.567 65.0557V80.4396Z" fill="#FFEBD2"/>
<path d="M124.786 95.5898C128.645 98.0036 125.602 103.923 121.379 102.228C112.695 98.7424 106.633 90.2801 106.633 80.4363V65.0524C106.633 62.6621 107.37 60.4438 108.629 58.6125C110.173 56.367 113.744 57.359 113.744 60.3116V75.6955C113.744 84.3498 118.293 91.5274 124.786 95.5898Z" fill="#FFF3E4"/>
<path d="M139.375 106.107C133.535 108.551 127.117 108.741 120.824 106.107C121.146 104.773 121.092 103.909 121.092 102.215L121.128 102.127C126.836 104.496 133.352 104.501 139.072 102.127L139.107 102.215C139.107 103.91 139.054 104.774 139.375 106.107Z" fill="#FFD6A6"/>
<path d="M120.825 119.359C119.949 119.635 119.009 119.786 118.001 119.795C108.212 119.882 100.231 127.622 100.231 137.411V139.193C100.231 141.026 98.7451 142.511 96.9123 142.511H95.4901C94.4428 142.511 93.5938 142.511 93.5938 142.511V131.309C93.5938 121.545 101.51 113.636 111.273 113.633C114.726 113.632 117.765 111.854 119.514 109.162C120.219 109.764 120.974 110.305 121.769 110.779C125.266 112.863 124.709 118.138 120.825 119.359Z" fill="#38A1EF"/>
<path d="M139.373 119.359C140.25 119.635 141.19 119.786 142.198 119.795C151.987 119.882 159.968 127.622 159.968 137.411V139.193C159.968 141.026 161.454 142.511 163.286 142.511H164.709C165.756 142.511 166.605 142.511 166.605 142.511V131.309C166.605 121.545 158.689 113.636 148.925 113.633C145.473 113.632 142.433 111.854 140.685 109.162C139.98 109.764 139.225 110.305 138.43 110.779C134.933 112.863 135.49 118.138 139.373 119.359Z" fill="#248DDB"/>
<path d="M147.428 37.1994C144.641 38.3465 144.244 38.5994 143.278 38.4496C127.71 36.0365 114.052 42.4776 109.414 57.5991V57.6015C107.679 59.5974 106.631 62.2048 106.631 65.0541V73.9485C106.631 77.7857 100.705 78.0529 100.705 73.8791V64.0277C100.629 60.5977 100.786 48.5015 109.523 40.0795C119.682 30.2874 135.782 31.0885 147.445 36.3271C147.824 36.4978 147.812 37.0406 147.428 37.1994Z" fill="#303030"/>
</svg>
