<svg width="261" height="163" viewBox="0 0 261 163" fill="none" xmlns="http://www.w3.org/2000/svg">
<rect x="1" y="1.01172" width="259" height="161.4" rx="4.5" fill="white" stroke="#EDEDED"/>
<rect x="17" y="27.0117" width="227" height="115" rx="1.5" stroke="#EDEDED"/>
<rect x="103.109" y="63.5117" width="111" height="4" rx="2" fill="#EDEDED"/>
<rect x="103.109" y="71.5117" width="100.185" height="4" rx="2" fill="#EDEDED"/>
<rect x="103.109" y="79.5117" width="96.2" height="4" rx="2" fill="#EDEDED"/>
<rect x="103.109" y="87.5117" width="54.3739" height="4" rx="2" fill="#EDEDED"/>
<rect x="103.109" y="95.5117" width="88.2308" height="4" rx="2" fill="#EDEDED"/>
<path d="M87.0586 76.8627C88.0891 75.2841 87.8987 73.2302 86.5958 71.8679C86.0215 71.2674 85.7816 70.4238 85.9536 69.6111C86.3443 67.7669 85.4249 65.9204 83.7177 65.1208C82.9653 64.7683 82.4368 64.0684 82.3036 63.2483C82.0017 61.3875 80.4772 59.9978 78.5966 59.8689C77.7678 59.812 77.022 59.3503 76.6016 58.6336C75.6478 57.0077 73.7248 56.2626 71.9241 56.8216C71.1307 57.068 70.2686 56.9067 69.6177 56.3904C68.1409 55.2188 66.0782 55.2188 64.6015 56.3904C63.9507 56.9069 63.0884 57.068 62.2951 56.8216C60.4948 56.2625 58.5713 57.0076 57.6176 58.6336C57.1972 59.3503 56.4515 59.812 55.6227 59.8689C53.7419 59.9978 52.2176 61.3876 51.9155 63.2483C51.7825 64.0684 51.2539 64.7683 50.5016 65.1208C48.7945 65.9205 47.8751 67.767 48.2656 69.6111C48.4377 70.4238 48.1976 71.2675 47.6235 71.868C46.3207 73.2303 46.1302 75.2843 47.1607 76.8629C47.6148 77.5585 47.6957 78.4319 47.3771 79.1992C46.6543 80.9402 47.2189 82.9242 48.7498 84.024C49.4246 84.5087 49.8155 85.2939 49.7956 86.1244C49.7506 88.0089 50.9938 89.655 52.8186 90.1275C53.3573 90.2669 53.8253 90.5786 54.1607 91.0037L49.9637 101.136C49.3756 102.556 50.7067 104.018 52.1746 103.567L56.7695 102.157C56.9038 102.116 57.0486 102.176 57.1143 102.3L59.3663 106.546C60.0866 107.905 62.0615 107.809 62.649 106.39L67.0234 95.8299C67.0807 95.828 67.1381 95.828 67.1955 95.8299L71.5699 106.39C72.1585 107.811 74.1333 107.903 74.8527 106.546L77.1047 102.3C77.1703 102.176 77.3152 102.116 77.4495 102.157L82.0443 103.568C83.513 104.018 84.8431 102.555 84.2553 101.136L80.0582 91.0039C80.3936 90.5787 80.8616 90.267 81.4002 90.1276C83.2251 89.6552 84.4681 88.0091 84.4233 86.1245C84.4034 85.294 84.7944 84.5088 85.4691 84.0242C87.0002 82.9244 87.5646 80.9403 86.8418 79.1993C86.5237 78.4317 86.6046 77.5583 87.0586 76.8627ZM61.2418 105.807C61.1462 106.038 60.8288 106.052 60.7123 105.832L58.4603 101.586C58.053 100.818 57.154 100.446 56.3229 100.701L51.7281 102.111C51.4897 102.184 51.2759 101.949 51.3714 101.719L55.0948 92.7292C55.935 93.88 57.3394 94.5214 58.8178 94.3487C59.6429 94.2525 60.4608 94.5692 61.0057 95.1963C61.7961 96.1063 62.91 96.5893 64.0464 96.5892C64.4058 96.5892 64.7674 96.5389 65.1218 96.4405L61.2418 105.807ZM82.4914 102.111L77.8966 100.701C77.0656 100.446 76.1664 100.818 75.7592 101.586L73.5072 105.832C73.3909 106.052 73.073 106.038 72.9776 105.807L69.0984 96.4422C70.573 96.8515 72.1735 96.3935 73.2138 95.196C73.7586 94.5689 74.5762 94.252 75.4017 94.3485C76.8815 94.5215 78.285 93.8799 79.1246 92.7291L82.8483 101.718C82.944 101.95 82.729 102.184 82.4914 102.111ZM85.7831 76.0301C85.0537 77.1476 84.9237 78.5506 85.4353 79.7831C85.8853 80.8669 85.5339 82.1019 84.5808 82.7866C83.4969 83.5652 82.8688 84.8265 82.9007 86.1605C82.9288 87.3338 82.1549 88.3586 81.0188 88.6526C79.9561 88.9277 79.0638 89.6194 78.5287 90.5546C78.5273 90.5574 78.5257 90.56 78.5243 90.5627C78.4109 90.762 78.3125 90.9719 78.2334 91.1917C77.8358 92.2958 76.7447 92.9724 75.5785 92.8357C74.2532 92.6807 72.9391 93.1899 72.0639 94.1973C71.2944 95.0831 70.0321 95.319 68.9943 94.7711C68.6414 94.5846 68.2676 94.4552 67.8859 94.3804C67.8828 94.3797 67.8796 94.379 67.8765 94.3784C67.3695 94.2802 66.8485 94.2803 66.3415 94.3788C66.3396 94.3792 66.3379 94.3796 66.3361 94.3799C65.9535 94.4547 65.579 94.5843 65.2253 94.7711C64.1875 95.3191 62.9253 95.0831 62.1558 94.1973C61.3841 93.3091 60.2717 92.8084 59.1107 92.8084C58.9549 92.8084 58.798 92.8175 58.6411 92.8358C57.476 92.9722 56.3837 92.296 55.9861 91.1918C55.9069 90.9722 55.8088 90.7626 55.6955 90.5634C55.6938 90.5601 55.692 90.5571 55.6903 90.5538C55.1551 89.6189 54.2631 88.9276 53.2007 88.6526C52.0646 88.3585 51.2908 87.3338 51.3189 86.1606C51.3507 84.8265 50.7227 83.5653 49.6388 82.7866C48.6857 82.102 48.3342 80.8669 48.7843 79.783C49.2959 78.5505 49.1659 77.1475 48.4365 76.03C47.7951 75.0474 47.9136 73.7687 48.7247 72.9206C49.647 71.9562 50.0327 70.601 49.7562 69.2955C49.5131 68.1474 50.0855 66.9979 51.1481 66.5001C52.3566 65.934 53.2057 64.8096 53.4196 63.4923C53.6076 62.3339 54.5566 61.4688 55.7273 61.3885C57.0587 61.2972 58.2567 60.5555 58.9319 59.4043C59.5257 58.3921 60.7233 57.9284 61.8437 58.2764C63.1182 58.6721 64.5032 58.4133 65.5487 57.5838C66.4678 56.8544 67.752 56.8544 68.6714 57.5838C69.7168 58.4132 71.1016 58.6722 72.3763 58.2764C73.4971 57.9283 74.6945 58.3922 75.2881 59.4043C75.9633 60.5554 77.1613 61.2971 78.4927 61.3885C79.6634 61.4689 80.6124 62.334 80.8004 63.4923C81.0143 64.8096 81.8635 65.934 83.0719 66.5002C84.1346 66.9979 84.7069 68.1474 84.4638 69.2955C84.1873 70.601 84.5729 71.9562 85.4953 72.9206C86.306 73.7687 86.4244 75.0474 85.7831 76.0301Z" fill="#262626"/>
<path d="M52.6844 75.024C53.1015 75.0753 53.4821 74.7786 53.5333 74.3611C54.3745 67.5245 60.2118 62.369 67.1112 62.369C74.014 62.369 79.8515 67.5272 80.6899 74.3675C80.7373 74.7536 81.0657 75.0366 81.445 75.0366C81.4759 75.0366 81.5071 75.0347 81.5386 75.0308C81.9561 74.9797 82.2531 74.5997 82.202 74.1822C81.2701 66.5791 74.7825 60.8457 67.1112 60.8457C59.4436 60.8457 52.9564 66.5761 52.0214 74.1751C51.9701 74.5926 52.2669 74.9726 52.6844 75.024Z" fill="#262626"/>
<path d="M81.5389 77.0682C81.1226 77.0174 80.7414 77.314 80.6903 77.7316C79.8522 84.5722 74.0146 89.7307 67.1115 89.7307C60.2115 89.7307 54.3742 84.5747 53.5334 77.7376C53.4821 77.3201 53.1022 77.0235 52.6844 77.0746C52.267 77.1258 51.97 77.506 52.0214 77.9235C52.956 85.5231 59.4432 91.2539 67.1114 91.2539C74.783 91.2539 81.2706 85.5202 82.2021 77.9167C82.2534 77.4993 81.9564 77.1193 81.5389 77.0682Z" fill="#262626"/>
<path d="M77.8658 72.908C77.6722 72.3122 77.1427 71.9127 76.5165 71.8902L70.5446 71.676L68.4953 66.0625C68.2805 65.474 67.737 65.0938 67.1105 65.0938C66.4841 65.0938 65.9405 65.474 65.7257 66.0625L63.6765 71.676L57.7045 71.8902C57.0785 71.9127 56.5488 72.3122 56.3553 72.908C56.1617 73.5037 56.3553 74.1383 56.8486 74.5244L61.5541 78.208L59.9124 83.954C59.7402 84.5564 59.9566 85.1835 60.4635 85.5518C60.9698 85.9196 61.6331 85.9322 62.1532 85.5821L67.1104 82.245L72.0678 85.5819C72.5873 85.9316 73.2506 85.9198 73.7575 85.5516C74.2644 85.1834 74.4806 84.5563 74.3085 83.9538L72.6668 78.2079L77.3723 74.5243C77.8657 74.1382 78.0594 73.5037 77.8658 72.908ZM71.702 77.0288C71.2272 77.4005 71.0274 78.0152 71.1931 78.5948L72.807 84.2432L67.9338 80.963C67.6837 80.7946 67.397 80.7104 67.1104 80.7104C66.8238 80.7104 66.5372 80.7946 66.2872 80.9629L61.4139 84.2431L63.0277 78.5948C63.1934 78.015 62.9937 77.4005 62.519 77.0288L57.8932 73.4077L63.7641 73.197C64.3665 73.1754 64.8894 72.7954 65.096 72.2292L67.1105 66.7109L69.125 72.2292C69.3318 72.7954 69.8546 73.1754 70.457 73.1969L76.3276 73.4076L71.702 77.0288Z" fill="#262626"/>
<circle cx="18.1" cy="15.7113" r="1.6" fill="#2E97E6"/>
<circle opacity="0.5" cx="23.7016" cy="15.7113" r="1.6" fill="#2E97E6"/>
<circle cx="29.2992" cy="15.7113" r="1.6" fill="#2E97E6"/>
</svg>
