<svg width="36" height="29" viewBox="0 0 36 29" fill="none" xmlns="http://www.w3.org/2000/svg">
<path d="M34.9488 0.815398C34.5215 0.321016 33.8813 0.0488281 33.1461 0.0488281C32.7465 0.0488281 32.3232 0.128364 31.888 0.285667L2.27044 10.9795C0.698662 11.5469 0.486975 12.3983 0.500589 12.8553C0.514203 13.3123 0.77661 14.1511 2.37988 14.6336C2.38949 14.6364 2.3991 14.6392 2.40871 14.6417L8.5522 16.3046L11.8746 25.2908C12.3276 26.5159 13.3444 27.277 14.5286 27.277C15.2752 27.277 16.0096 26.981 16.6524 26.4215L20.4524 23.1121L25.964 27.3098C25.9645 27.3103 25.9653 27.3105 25.9658 27.311L26.0182 27.3509C26.023 27.3545 26.028 27.3583 26.0329 27.3618C26.6455 27.8112 27.3142 28.0486 27.9674 28.0488H27.9677C29.2439 28.0488 30.2602 27.1553 30.5562 25.7726L35.409 3.10779C35.6039 2.19805 35.4405 1.38401 34.9488 0.815398V0.815398ZM10.6074 15.9887L22.4601 10.2614L15.0798 17.6789C14.9589 17.8004 14.8732 17.9491 14.831 18.1109L13.4079 23.5633L10.6074 15.9887ZM15.2635 24.9949C15.2144 25.0376 15.165 25.0757 15.1156 25.1108L16.4359 20.0529L18.8376 21.8822L15.2635 24.9949ZM33.3997 2.72273L28.5469 25.3878C28.5002 25.6047 28.351 26.1094 27.9674 26.1094C27.7779 26.1094 27.5398 26.0117 27.296 25.8342L21.0506 21.0777C21.0498 21.077 21.0487 21.0762 21.0476 21.0757L17.3315 18.2453L28.0042 7.51859C28.3459 7.1752 28.3769 6.64926 28.0777 6.27203C27.7781 5.89481 27.2354 5.77614 26.7915 5.99075L9.23771 14.473L3.01068 12.7879L32.6192 2.09731C32.8693 2.00691 33.0439 1.98798 33.1461 1.98798C33.2089 1.98798 33.3205 1.99505 33.3618 2.04327C33.4163 2.10614 33.4857 2.32051 33.3997 2.72273V2.72273Z" fill="#EDEDED"/>
</svg>
